<svg xmlns="http://www.w3.org/2000/svg" xmlns:xlink="http://www.w3.org/1999/xlink" width="164" zoomAndPan="magnify" viewBox="0 0 123 37.5" height="50" preserveAspectRatio="xMidYMid meet" version="1.0"><defs><g/><clipPath id="27eac7d6ff"><path d="M 0.808594 0 L 37.488281 0 L 37.488281 37.007812 L 0.808594 37.007812 Z M 0.808594 0 " clip-rule="nonzero"/></clipPath><clipPath id="e7d1c44279"><path d="M 3.832031 0 L 34.464844 0 C 35.269531 0 36.039062 0.320312 36.605469 0.886719 C 37.171875 1.453125 37.488281 2.222656 37.488281 3.023438 L 37.488281 34.269531 C 37.488281 35.074219 37.171875 35.84375 36.605469 36.410156 C 36.039062 36.976562 35.269531 37.296875 34.464844 37.296875 L 3.832031 37.296875 C 3.03125 37.296875 2.261719 36.976562 1.695312 36.410156 C 1.128906 35.84375 0.808594 35.074219 0.808594 34.269531 L 0.808594 3.023438 C 0.808594 2.222656 1.128906 1.453125 1.695312 0.886719 C 2.261719 0.320312 3.03125 0 3.832031 0 Z M 3.832031 0 " clip-rule="nonzero"/></clipPath></defs><g clip-path="url(#27eac7d6ff)"><g clip-path="url(#e7d1c44279)"><path fill="#264653" d="M 0.808594 0 L 37.488281 0 L 37.488281 37.253906 L 0.808594 37.253906 Z M 0.808594 0 " fill-opacity="1" fill-rule="nonzero"/></g></g><g fill="#2a9d8f" fill-opacity="1"><g transform="translate(41.998355, 23.508662)"><g><path d="M 4.65625 0.15625 C 3.925781 0.15625 3.273438 0.0664062 2.703125 -0.109375 C 2.140625 -0.296875 1.664062 -0.535156 1.28125 -0.828125 C 0.90625 -1.117188 0.617188 -1.4375 0.421875 -1.78125 L 1.5625 -3.1875 L 1.75 -3.1875 C 2.0625 -2.71875 2.457031 -2.34375 2.9375 -2.0625 C 3.425781 -1.78125 4 -1.640625 4.65625 -1.640625 C 5.207031 -1.640625 5.625 -1.753906 5.90625 -1.984375 C 6.1875 -2.222656 6.328125 -2.550781 6.328125 -2.96875 C 6.328125 -3.21875 6.28125 -3.425781 6.1875 -3.59375 C 6.101562 -3.757812 5.953125 -3.898438 5.734375 -4.015625 C 5.523438 -4.140625 5.242188 -4.242188 4.890625 -4.328125 L 3.546875 -4.640625 C 2.597656 -4.847656 1.890625 -5.203125 1.421875 -5.703125 C 0.960938 -6.210938 0.734375 -6.863281 0.734375 -7.65625 C 0.734375 -8.25 0.878906 -8.769531 1.171875 -9.21875 C 1.472656 -9.675781 1.90625 -10.023438 2.46875 -10.265625 C 3.039062 -10.515625 3.722656 -10.640625 4.515625 -10.640625 C 5.328125 -10.640625 6.019531 -10.535156 6.59375 -10.328125 C 7.164062 -10.117188 7.65625 -9.789062 8.0625 -9.34375 L 7.03125 -7.9375 L 6.84375 -7.9375 C 6.550781 -8.25 6.210938 -8.484375 5.828125 -8.640625 C 5.441406 -8.796875 5.003906 -8.875 4.515625 -8.875 C 3.941406 -8.875 3.503906 -8.769531 3.203125 -8.5625 C 2.910156 -8.363281 2.765625 -8.085938 2.765625 -7.734375 C 2.765625 -7.410156 2.867188 -7.148438 3.078125 -6.953125 C 3.285156 -6.753906 3.644531 -6.597656 4.15625 -6.484375 L 5.546875 -6.203125 C 6.566406 -5.984375 7.304688 -5.617188 7.765625 -5.109375 C 8.222656 -4.597656 8.453125 -3.925781 8.453125 -3.09375 C 8.453125 -2.4375 8.3125 -1.863281 8.03125 -1.375 C 7.75 -0.894531 7.320312 -0.519531 6.75 -0.25 C 6.175781 0.0195312 5.476562 0.15625 4.65625 0.15625 Z M 4.65625 0.15625 "/></g></g></g><g fill="#2a9d8f" fill-opacity="1"><g transform="translate(53.160106, 23.508662)"><g><path d="M 5.734375 0.15625 C 4.765625 0.15625 3.910156 -0.046875 3.171875 -0.453125 C 2.441406 -0.859375 1.867188 -1.460938 1.453125 -2.265625 C 1.035156 -3.066406 0.828125 -4.0625 0.828125 -5.25 C 0.828125 -6.425781 1.035156 -7.414062 1.453125 -8.21875 C 1.867188 -9.03125 2.441406 -9.632812 3.171875 -10.03125 C 3.910156 -10.4375 4.765625 -10.640625 5.734375 -10.640625 C 6.742188 -10.640625 7.601562 -10.441406 8.3125 -10.046875 C 9.019531 -9.660156 9.523438 -9.0625 9.828125 -8.25 L 8.3125 -7.328125 L 8.125 -7.328125 C 7.90625 -7.878906 7.601562 -8.269531 7.21875 -8.5 C 6.832031 -8.738281 6.335938 -8.859375 5.734375 -8.859375 C 4.859375 -8.859375 4.175781 -8.566406 3.6875 -7.984375 C 3.207031 -7.410156 2.96875 -6.5 2.96875 -5.25 C 2.96875 -4 3.207031 -3.082031 3.6875 -2.5 C 4.175781 -1.925781 4.859375 -1.640625 5.734375 -1.640625 C 7.097656 -1.640625 7.929688 -2.300781 8.234375 -3.625 L 8.421875 -3.625 L 9.953125 -2.828125 C 9.660156 -1.835938 9.164062 -1.09375 8.46875 -0.59375 C 7.78125 -0.09375 6.867188 0.15625 5.734375 0.15625 Z M 5.734375 0.15625 "/></g></g></g><g fill="#2a9d8f" fill-opacity="1"><g transform="translate(65.599369, 23.508662)"><g><path d="M 3.4375 -4.609375 L 3.4375 -1.734375 L 8.453125 -1.734375 L 8.453125 0 L 1.359375 0 L 1.359375 -10.5 L 8.328125 -10.5 L 8.328125 -8.765625 L 3.4375 -8.765625 L 3.4375 -6.296875 L 7.71875 -6.296875 L 7.71875 -4.609375 Z M 3.4375 -4.609375 "/></g></g></g><g fill="#2a9d8f" fill-opacity="1"><g transform="translate(76.768304, 23.508662)"><g><path d="M 5.421875 -10.5 C 6.171875 -10.5 6.8125 -10.359375 7.34375 -10.078125 C 7.882812 -9.804688 8.289062 -9.421875 8.5625 -8.921875 C 8.832031 -8.429688 8.96875 -7.859375 8.96875 -7.203125 C 8.96875 -6.546875 8.832031 -5.96875 8.5625 -5.46875 C 8.289062 -4.976562 7.882812 -4.59375 7.34375 -4.3125 C 6.8125 -4.039062 6.171875 -3.90625 5.421875 -3.90625 L 3.4375 -3.90625 L 3.4375 0 L 1.359375 0 L 1.359375 -10.5 Z M 5.140625 -5.5625 C 6.296875 -5.5625 6.875 -6.109375 6.875 -7.203125 C 6.875 -8.304688 6.296875 -8.859375 5.140625 -8.859375 L 3.4375 -8.859375 L 3.4375 -5.5625 Z M 5.140625 -5.5625 "/></g></g></g><g fill="#2a9d8f" fill-opacity="1"><g transform="translate(88.504216, 23.508662)"><g><path d="M 8.421875 -10.5 L 8.421875 -8.75 L 5.390625 -8.75 L 5.390625 0 L 3.3125 0 L 3.3125 -8.75 L 0.28125 -8.75 L 0.28125 -10.5 Z M 8.421875 -10.5 "/></g></g></g><g fill="#2a9d8f" fill-opacity="1"><g transform="translate(99.350176, 23.508662)"><g><path d="M 3.4375 -4.609375 L 3.4375 -1.734375 L 8.453125 -1.734375 L 8.453125 0 L 1.359375 0 L 1.359375 -10.5 L 8.328125 -10.5 L 8.328125 -8.765625 L 3.4375 -8.765625 L 3.4375 -6.296875 L 7.71875 -6.296875 L 7.71875 -4.609375 Z M 3.4375 -4.609375 "/></g></g></g><g fill="#2a9d8f" fill-opacity="1"><g transform="translate(110.519109, 23.508662)"><g><path d="M 1.359375 0 L 1.359375 -10.5 L 5.578125 -10.5 C 6.660156 -10.5 7.476562 -10.25 8.03125 -9.75 C 8.582031 -9.25 8.859375 -8.554688 8.859375 -7.671875 C 8.859375 -7.035156 8.695312 -6.515625 8.375 -6.109375 C 8.050781 -5.703125 7.570312 -5.390625 6.9375 -5.171875 L 6.9375 -5.03125 C 7.269531 -4.882812 7.535156 -4.671875 7.734375 -4.390625 C 7.941406 -4.109375 8.132812 -3.6875 8.3125 -3.125 L 9.359375 0 L 7.234375 0 L 6.203125 -3.140625 C 6.097656 -3.453125 5.976562 -3.695312 5.84375 -3.875 C 5.71875 -4.050781 5.550781 -4.175781 5.34375 -4.25 C 5.144531 -4.332031 4.878906 -4.375 4.546875 -4.375 L 3.4375 -4.375 L 3.4375 0 Z M 5.328125 -6.015625 C 6.328125 -6.015625 6.828125 -6.484375 6.828125 -7.421875 C 6.828125 -8.378906 6.328125 -8.859375 5.328125 -8.859375 L 3.4375 -8.859375 L 3.4375 -6.015625 Z M 5.328125 -6.015625 "/></g></g></g><g fill="#ffffff" fill-opacity="1"><g transform="translate(2.547764, 23.352951)"><g><path d="M 13.328125 1.59375 L 13.328125 -11.734375 L 0 1.59375 Z M 13.328125 1.59375 "/></g></g></g><g fill="#ffffff" fill-opacity="1"><g transform="translate(16.096668, 23.352951)"><g/></g></g><g fill="#ffffff" fill-opacity="1"><g transform="translate(21.652195, 23.352951)"><g><path d="M 0 1.59375 L 13.328125 -11.734375 L 0 -11.734375 Z M 0 1.59375 "/></g></g></g><g fill="#ffffff" fill-opacity="1"><g transform="translate(35.206068, 23.352951)"><g/></g></g><g fill="#ffffff" fill-opacity="1"><g transform="translate(40.761596, 23.352951)"><g/></g></g><g fill="#ffffff" fill-opacity="1"><g transform="translate(46.317123, 23.352951)"><g/></g></g><g fill="#ffffff" fill-opacity="1"><g transform="translate(51.872651, 23.352951)"><g/></g></g></svg>