<svg xmlns="http://www.w3.org/2000/svg" xmlns:xlink="http://www.w3.org/1999/xlink" width="164" zoomAndPan="magnify" viewBox="0 0 123 52.499999" height="70" preserveAspectRatio="xMidYMid meet" version="1.0"><defs><g/></defs><g fill="#ffffff" fill-opacity="1"><g transform="translate(16.913468, 51.77437)"><g><path d="M 5.296875 0.171875 C 4.460938 0.171875 3.722656 0.0703125 3.078125 -0.125 C 2.429688 -0.332031 1.894531 -0.601562 1.46875 -0.9375 C 1.039062 -1.269531 0.710938 -1.632812 0.484375 -2.03125 L 1.78125 -3.625 L 1.984375 -3.625 C 2.347656 -3.082031 2.804688 -2.65625 3.359375 -2.34375 C 3.910156 -2.03125 4.554688 -1.875 5.296875 -1.875 C 5.929688 -1.875 6.40625 -2.003906 6.71875 -2.265625 C 7.039062 -2.535156 7.203125 -2.90625 7.203125 -3.375 C 7.203125 -3.65625 7.148438 -3.890625 7.046875 -4.078125 C 6.941406 -4.273438 6.769531 -4.441406 6.53125 -4.578125 C 6.289062 -4.710938 5.96875 -4.828125 5.5625 -4.921875 L 4.03125 -5.28125 C 2.957031 -5.519531 2.15625 -5.925781 1.625 -6.5 C 1.101562 -7.070312 0.84375 -7.8125 0.84375 -8.71875 C 0.84375 -9.394531 1.007812 -9.988281 1.34375 -10.5 C 1.6875 -11.007812 2.179688 -11.40625 2.828125 -11.6875 C 3.472656 -11.976562 4.242188 -12.125 5.140625 -12.125 C 6.054688 -12.125 6.84375 -12 7.5 -11.75 C 8.15625 -11.507812 8.710938 -11.140625 9.171875 -10.640625 L 8 -9.03125 L 7.796875 -9.03125 C 7.453125 -9.382812 7.0625 -9.648438 6.625 -9.828125 C 6.195312 -10.003906 5.703125 -10.09375 5.140625 -10.09375 C 4.492188 -10.09375 4 -9.976562 3.65625 -9.75 C 3.320312 -9.519531 3.15625 -9.207031 3.15625 -8.8125 C 3.15625 -8.4375 3.269531 -8.132812 3.5 -7.90625 C 3.738281 -7.6875 4.148438 -7.515625 4.734375 -7.390625 L 6.3125 -7.0625 C 7.46875 -6.8125 8.304688 -6.394531 8.828125 -5.8125 C 9.359375 -5.226562 9.625 -4.460938 9.625 -3.515625 C 9.625 -2.773438 9.460938 -2.128906 9.140625 -1.578125 C 8.816406 -1.023438 8.328125 -0.59375 7.671875 -0.28125 C 7.023438 0.0195312 6.234375 0.171875 5.296875 0.171875 Z M 5.296875 0.171875 "/></g></g></g><g fill="#ffffff" fill-opacity="1"><g transform="translate(29.616822, 51.77437)"><g><path d="M 6.53125 0.171875 C 5.425781 0.171875 4.453125 -0.0546875 3.609375 -0.515625 C 2.773438 -0.972656 2.117188 -1.660156 1.640625 -2.578125 C 1.171875 -3.492188 0.9375 -4.625 0.9375 -5.96875 C 0.9375 -7.3125 1.171875 -8.441406 1.640625 -9.359375 C 2.117188 -10.285156 2.773438 -10.976562 3.609375 -11.4375 C 4.453125 -11.894531 5.425781 -12.125 6.53125 -12.125 C 7.675781 -12.125 8.648438 -11.894531 9.453125 -11.4375 C 10.253906 -10.988281 10.828125 -10.304688 11.171875 -9.390625 L 9.453125 -8.328125 L 9.25 -8.34375 C 8.988281 -8.96875 8.640625 -9.410156 8.203125 -9.671875 C 7.765625 -9.941406 7.207031 -10.078125 6.53125 -10.078125 C 5.539062 -10.078125 4.765625 -9.75 4.203125 -9.09375 C 3.648438 -8.4375 3.375 -7.394531 3.375 -5.96875 C 3.375 -4.550781 3.648438 -3.515625 4.203125 -2.859375 C 4.765625 -2.203125 5.539062 -1.875 6.53125 -1.875 C 8.082031 -1.875 9.03125 -2.628906 9.375 -4.140625 L 9.578125 -4.140625 L 11.328125 -3.234375 C 10.992188 -2.097656 10.429688 -1.242188 9.640625 -0.671875 C 8.859375 -0.109375 7.820312 0.171875 6.53125 0.171875 Z M 6.53125 0.171875 "/></g></g></g><g fill="#ffffff" fill-opacity="1"><g transform="translate(43.774024, 51.77437)"><g><path d="M 3.90625 -5.25 L 3.90625 -1.984375 L 9.625 -1.984375 L 9.625 0 L 1.546875 0 L 1.546875 -11.953125 L 9.484375 -11.953125 L 9.484375 -9.96875 L 3.90625 -9.96875 L 3.90625 -7.171875 L 8.78125 -7.171875 L 8.78125 -5.25 Z M 3.90625 -5.25 "/></g></g></g><g fill="#ffffff" fill-opacity="1"><g transform="translate(56.48555, 51.77437)"><g><path d="M 6.171875 -11.953125 C 7.023438 -11.953125 7.753906 -11.789062 8.359375 -11.46875 C 8.972656 -11.15625 9.429688 -10.71875 9.734375 -10.15625 C 10.046875 -9.59375 10.203125 -8.941406 10.203125 -8.203125 C 10.203125 -7.453125 10.046875 -6.796875 9.734375 -6.234375 C 9.429688 -5.671875 8.972656 -5.234375 8.359375 -4.921875 C 7.753906 -4.609375 7.023438 -4.453125 6.171875 -4.453125 L 3.90625 -4.453125 L 3.90625 0 L 1.546875 0 L 1.546875 -11.953125 Z M 5.859375 -6.328125 C 7.171875 -6.328125 7.828125 -6.953125 7.828125 -8.203125 C 7.828125 -9.453125 7.171875 -10.078125 5.859375 -10.078125 L 3.90625 -10.078125 L 3.90625 -6.328125 Z M 5.859375 -6.328125 "/></g></g></g><g fill="#ffffff" fill-opacity="1"><g transform="translate(69.84232, 51.77437)"><g><path d="M 9.578125 -11.953125 L 9.578125 -9.953125 L 6.125 -9.953125 L 6.125 0 L 3.78125 0 L 3.78125 -9.953125 L 0.328125 -9.953125 L 0.328125 -11.953125 Z M 9.578125 -11.953125 "/></g></g></g><g fill="#ffffff" fill-opacity="1"><g transform="translate(82.186298, 51.77437)"><g><path d="M 3.90625 -5.25 L 3.90625 -1.984375 L 9.625 -1.984375 L 9.625 0 L 1.546875 0 L 1.546875 -11.953125 L 9.484375 -11.953125 L 9.484375 -9.96875 L 3.90625 -9.96875 L 3.90625 -7.171875 L 8.78125 -7.171875 L 8.78125 -5.25 Z M 3.90625 -5.25 "/></g></g></g><g fill="#ffffff" fill-opacity="1"><g transform="translate(94.897827, 51.77437)"><g><path d="M 1.546875 0 L 1.546875 -11.953125 L 6.34375 -11.953125 C 7.582031 -11.953125 8.515625 -11.664062 9.140625 -11.09375 C 9.773438 -10.519531 10.09375 -9.734375 10.09375 -8.734375 C 10.09375 -8.003906 9.90625 -7.410156 9.53125 -6.953125 C 9.164062 -6.492188 8.617188 -6.140625 7.890625 -5.890625 L 7.890625 -5.71875 C 8.265625 -5.550781 8.566406 -5.304688 8.796875 -4.984375 C 9.035156 -4.671875 9.257812 -4.195312 9.46875 -3.5625 L 10.65625 0 L 8.234375 0 L 7.0625 -3.578125 C 6.9375 -3.929688 6.800781 -4.207031 6.65625 -4.40625 C 6.507812 -4.601562 6.316406 -4.742188 6.078125 -4.828125 C 5.847656 -4.921875 5.550781 -4.96875 5.1875 -4.96875 L 3.90625 -4.96875 L 3.90625 0 Z M 6.0625 -6.84375 C 7.207031 -6.84375 7.78125 -7.378906 7.78125 -8.453125 C 7.78125 -9.535156 7.207031 -10.078125 6.0625 -10.078125 L 3.90625 -10.078125 L 3.90625 -6.84375 Z M 6.0625 -6.84375 "/></g></g></g><g fill="#ffffff" fill-opacity="1"><g transform="translate(28.557413, 24.981926)"><g><path d="M 28.25 3.390625 L 28.25 -24.859375 L 0 3.390625 Z M 28.25 3.390625 "/></g></g></g><g fill="#ffffff" fill-opacity="1"><g transform="translate(55.613737, 24.981926)"><g/></g></g><g fill="#ffffff" fill-opacity="1"><g transform="translate(65.724422, 24.981926)"><g><path d="M 0 3.390625 L 28.25 -24.859375 L 0 -24.859375 Z M 0 3.390625 "/></g></g></g><g fill="#ffffff" fill-opacity="1"><g transform="translate(92.785556, 24.981926)"><g/></g></g><g fill="#ffffff" fill-opacity="1"><g transform="translate(102.896239, 24.981926)"><g/></g></g><g fill="#ffffff" fill-opacity="1"><g transform="translate(113.006922, 24.981926)"><g/></g></g></svg>